<svg width="22" height="22" viewBox="0 0 22 22" fill="none" xmlns="http://www.w3.org/2000/svg">
<g clip-path="url(#clip0)">
<path d="M12.8824 8.32404C12.4066 8.32404 11.9181 8.53267 11.576 8.88213C11.4255 9.03587 11.2155 9.12416 11.0002 9.12416C10.7847 9.12416 10.5747 9.03604 10.4241 8.88229C10.0819 8.53267 9.59344 8.32404 9.1176 8.32404C8.17346 8.32404 7.46146 9.03604 7.46146 9.98018C7.46146 11.255 8.68103 12.3968 10.837 14.3041C10.9319 14.3838 11.068 14.3838 11.163 14.3041C13.319 12.3968 14.5385 11.255 14.5385 9.98018C14.5385 9.03604 13.8265 8.32404 12.8824 8.32404Z" fill="#596273"/>
<path d="M18.8007 3.24431C16.7392 1.17107 13.9947 0.0191345 11.0723 0.000503542C11.048 0 11.0242 0 11 0C8.06184 0 5.29959 1.14421 3.22198 3.22182C1.14421 5.29942 0 8.06184 0 11C0 13.9382 1.14421 16.7006 3.22198 18.7782C5.29959 20.8558 8.06184 22 11 22C11.0242 22 11.048 22 11.0723 21.9995C13.9947 21.9809 16.7392 20.8289 18.8007 18.7557C20.8638 16.6806 22 13.9262 22 11C22 8.07376 20.8638 5.3194 18.8007 3.24431ZM12.0126 15.2735L12.0057 15.2796C11.7145 15.53 11.3572 15.6554 11 15.6554C10.6427 15.6554 10.2855 15.5302 9.99409 15.2796L9.98738 15.2735C7.8559 13.3881 6.17239 11.8988 6.17239 9.98033C6.17239 8.32872 7.46616 7.03513 9.1176 7.03513C9.79318 7.03513 10.4584 7.26474 11 7.67613C11.5415 7.26474 12.2068 7.03513 12.8824 7.03513C14.5338 7.03513 15.8276 8.32889 15.8276 9.98033C15.8276 11.8988 14.1441 13.3881 12.0126 15.2735Z" fill="#596273"/>
</g>
<defs>
<clipPath id="clip0">
<rect width="22" height="22" fill="white"/>
</clipPath>
</defs>
</svg>
