<svg width="14" height="21" viewBox="0 0 14 21" fill="none" xmlns="http://www.w3.org/2000/svg">
<path d="M11.702 4.90201V4.12255C12.604 3.88735 13.2715 3.06752 13.2715 2.09516C13.2715 0.939835 12.3293 0 11.171 0H2.82904C1.67069 0 0.728367 0.939835 0.728367 2.09516C0.728367 3.06752 1.39597 3.88735 2.29783 4.12255V4.90201C1.00708 5.04604 0 6.1461 0 7.47718V18.4088C0 19.8376 1.16011 21 2.58614 21H11.4139C12.8399 21 14 19.8376 14 18.4088V7.47718C14 6.1461 12.9929 5.04604 11.702 4.90201ZM1.22807 9.81555H12.7719V16.0669H1.22807V9.81555ZM10.4739 4.19032V4.88615H3.5259V4.19032H10.4739ZM1.95644 2.09516C1.95644 1.61835 2.34788 1.23047 2.82904 1.23047H11.171C11.6521 1.23047 12.0434 1.61835 12.0434 2.09516C12.0434 2.57197 11.652 2.95985 11.171 2.95985H2.82904C2.34788 2.95985 1.95644 2.57197 1.95644 2.09516ZM2.58614 6.11662H11.4139C12.1627 6.11662 12.7719 6.72688 12.7719 7.47718V8.58508H1.22807V7.47718C1.22807 6.72688 1.83731 6.11662 2.58614 6.11662ZM11.4139 19.7695H2.58614C1.83731 19.7695 1.22807 19.1591 1.22807 18.4088V17.2974H12.7719V18.4088C12.7719 19.1591 12.1627 19.7695 11.4139 19.7695Z" fill="#596273"/>
</svg>
