<svg width="12" height="12" viewBox="0 0 12 12" fill="none" xmlns="http://www.w3.org/2000/svg">
<path d="M6 12C2.67273 12 0 9.32727 0 6C0 2.67273 2.67273 0 6 0C9.32727 0 12 2.67273 12 6C12 9.32727 9.32727 12 6 12ZM6 1.09091C3.27273 1.09091 1.09091 3.27273 1.09091 6C1.09091 8.72727 3.27273 10.9091 6 10.9091C8.72727 10.9091 10.9091 8.72727 10.9091 6C10.9091 3.27273 8.72727 1.09091 6 1.09091Z" fill="#BCC5D8"/>
<path d="M6 6.54545C5.67273 6.54545 5.45455 6.32727 5.45455 6V3.81818C5.45455 3.49091 5.67273 3.27273 6 3.27273C6.32727 3.27273 6.54545 3.49091 6.54545 3.81818V6C6.54545 6.32727 6.32727 6.54545 6 6.54545Z" fill="#BCC5D8"/>
<path d="M6 8.72727C5.83636 8.72727 5.72727 8.67273 5.61818 8.56364C5.50909 8.45455 5.45455 8.34546 5.45455 8.18182C5.45455 8.12727 5.45455 8.01818 5.50909 7.96364C5.56364 7.90909 5.56364 7.85455 5.61818 7.8C5.78182 7.63636 6 7.58182 6.21818 7.69091C6.27273 7.69091 6.27273 7.69091 6.32727 7.74545C6.32727 7.74545 6.38182 7.8 6.43636 7.8C6.49091 7.85455 6.54545 7.90909 6.54545 7.96364C6.54545 8.01818 6.54545 8.12727 6.54545 8.18182C6.54545 8.23636 6.54545 8.34545 6.49091 8.4C6.43636 8.45455 6.43636 8.50909 6.38182 8.56364C6.27273 8.67273 6.16364 8.72727 6 8.72727Z" fill="#BCC5D8"/>
</svg>
